<svg xmlns="http://www.w3.org/2000/svg" viewBox="0 0 400 300"><g id="_235_couple_outline" data-name="#235_couple_outline"><path d="M305,118.06a93,93,0,0,1-3.53,20.59,80.09,80.09,0,0,1-15.12,27.88c-2.88,3.55-6,6.94-9.13,10.2q-2.94,3-6,5.84c-2,1.93-4.09,3.81-6.16,5.67-.65.59-1.3,1.16-2,1.74q-7.05,6.24-14.16,12.4h0c-7.73,6.74-15.44,13.45-23.11,20.26q-2.12,1.88-4.23,3.8c-4,3.58-7.9,7.2-11.83,10.82q-4.49,4.14-9,8.27c-.23.22-.48.44-.74.67-2.8-2.59-5.56-5.19-8.32-7.76-2-1.87-4-3.72-6.07-5.53l-6.27-5.55-.11-.09q-9.9-8.75-19.84-17.47l-1.56-1.37L145,197.18c-2.69-2.37-5.37-4.73-8-7.12h0c-3.36-3-6.68-6.05-9.92-9.18-2.8-2.71-5.54-5.49-8.18-8.37-7.28-7.91-13.54-16.51-17.68-26.52A82.43,82.43,0,0,1,95.74,125a113.66,113.66,0,0,1-.94-19.42c.94-22.59,14.84-41.69,35.62-48.55,22.38-7.37,42.08-2.19,59,14.06a65.34,65.34,0,0,1,10,12.61l.63,1c.3-.46.54-.82.76-1.19,6.35-10,14.51-18.15,25.14-23.62a54.13,54.13,0,0,1,29.48-5.85,53.17,53.17,0,0,1,31,12.5,52.57,52.57,0,0,1,18.08,32C305.59,105,305.36,111.55,305,118.06Z" fill="#f56132"/><path d="M200,247.21a1,1,0,0,1-.68-.26l-4.91-4.58L191,239.18c-2.35-2.19-4.28-3.94-6.05-5.51l-3.14-2.78-3.13-2.77-.11-.09q-9.9-8.75-19.84-17.47l-1.1-1-.46-.4-9.05-7.95-3.77-3.31q-4-3.54-8-7.1l-.08-.08c-3.72-3.33-7-6.32-9.9-9.15s-5.67-5.64-8.23-8.42c-8.4-9.13-14.08-17.66-17.87-26.82a83,83,0,0,1-5.51-21.19,116.3,116.3,0,0,1-1-19.59c1-23.09,15.21-42.5,36.31-49.45,22.3-7.36,42.48-2.55,60,14.28A65.62,65.62,0,0,1,200,82.86c6.82-10.74,15.14-18.54,25.44-23.84a55.29,55.29,0,0,1,30-6A54.26,54.26,0,0,1,287,65.79a53.72,53.72,0,0,1,18.42,32.59c1.19,6.76.9,13.46.51,19.75a93.15,93.15,0,0,1-3.57,20.8,80.52,80.52,0,0,1-15.3,28.23c-2.71,3.34-5.72,6.69-9.2,10.26-2,2.08-4.06,4.06-6,5.88S268,187,265.71,189c-.48.44-1,.87-1.46,1.3l-.5.45c-4.67,4.13-9.45,8.29-14.06,12.31l-.1.08,0,0h0l-1.79,1.56c-7,6.1-14.24,12.41-21.3,18.69-1.42,1.25-2.82,2.51-4.22,3.79-4,3.6-8,7.27-11.84,10.82l-.13.12-8.84,8.15-.56.51-.19.17A1,1,0,0,1,200,247.21Zm-20-20.59,3.13,2.78,3.13,2.77c1.79,1.58,3.73,3.34,6.09,5.55l3.42,3.19,4.23,4,.06-.05,8.84-8.15.13-.12c3.86-3.56,7.84-7.23,11.85-10.83,1.39-1.28,2.81-2.55,4.23-3.81,7.07-6.28,14.31-12.59,21.31-18.7l1.78-1.54,0,0,.11-.1c4.62-4,9.39-8.17,14.05-12.3l.51-.44,1.43-1.29c2.26-2,4.26-3.86,6.15-5.66s3.92-3.76,5.94-5.82c3.44-3.52,6.41-6.83,9.08-10.12a78.52,78.52,0,0,0,14.93-27.54A90.94,90.94,0,0,0,304,118h0c.39-6.17.67-12.73-.48-19.28a51.77,51.77,0,0,0-17.74-31.4A52.34,52.34,0,0,0,255.3,55.06a53.34,53.34,0,0,0-29,5.74c-10,5.16-18.11,12.77-24.74,23.26-.23.37-.47.74-.78,1.21a1,1,0,0,1-1.67,0l-.63-1a64.19,64.19,0,0,0-9.83-12.43c-16.92-16.28-36.42-20.93-58-13.83-20.3,6.7-34,25.39-34.93,47.64a112.33,112.33,0,0,0,.94,19.25,80.57,80.57,0,0,0,5.37,20.69c3.7,8.94,9.26,17.27,17.49,26.23,2.53,2.75,5.2,5.47,8.15,8.33s6.17,5.81,9.89,9.14l.07.07h0c2.6,2.32,5.28,4.68,8,7.05l3.77,3.3,9,8,.45.39,1.12,1q9.91,8.72,19.84,17.47l-.56.84Z" fill="#093f68"/><path d="M277.17,176.73q-2.94,3-6,5.84c-2,1.93-4.09,3.81-6.16,5.67-.65.59-1.3,1.16-2,1.74q-7.05,6.24-14.16,12.4h0a41.56,41.56,0,0,1-6,1c-8.84.88-18.11-.82-25.58-5.58-.57-.34-1.11-.72-1.65-1.11a31.13,31.13,0,0,1-7.08-7.18,27.59,27.59,0,0,1-5.25-17.38c.33-5.56,2.48-10.82,4.05-16.17a77.84,77.84,0,0,0,2-8.92,79.16,79.16,0,0,0,1.1-13.58c0-.54,0-1.09,0-1.63-.17-6.9-2.57-13.09-.7-19.87,2.54-9.16,6.66-16.88,17.3-17.05a2.09,2.09,0,0,0,.75-.09,2.21,2.21,0,0,0,.91-.78c12.49-15.3,34.8-1.58,41.68,12.6a45.91,45.91,0,0,1,4.22,16.55,89,89,0,0,1-.19,12.12c-.06.83-.1,1.66-.15,2.5a25.38,25.38,0,0,0,.85,7.17c.47,2,1.05,4,1.51,6.1C278.51,159.5,279.42,168.4,277.17,176.73Z" fill="#725858"/><path d="M238.35,204.66a40.2,40.2,0,0,1-21.59-6c-.53-.33-1.09-.71-1.7-1.15a32.19,32.19,0,0,1-7.31-7.42,28.55,28.55,0,0,1-5.43-18c.26-4.36,1.6-8.54,2.9-12.58.41-1.27.82-2.54,1.19-3.81a77.54,77.54,0,0,0,2-8.81,78.4,78.4,0,0,0,1.09-13.4c0-.55,0-1.08,0-1.61a59.07,59.07,0,0,0-.71-6.89c-.6-4.26-1.23-8.66.05-13.28,2.41-8.69,6.46-17.6,18.24-17.78a2.37,2.37,0,0,0,.42,0,2,2,0,0,0,.48-.48,18.34,18.34,0,0,1,17-6.93c10.12,1.18,21.44,9.66,26.31,19.72a46.17,46.17,0,0,1,4.32,16.92,82.82,82.82,0,0,1-.14,11.49l-.05.76c0,.79-.09,1.58-.13,2.37v.12a25,25,0,0,0,.82,6.89c.2.83.41,1.66.63,2.5.3,1.17.62,2.38.88,3.62,2.3,10.5,2.45,18.78.48,26.07a1,1,0,0,1-.25.44c-2,2.07-4.06,4-6,5.87S268,187,265.71,189c-.48.44-1,.87-1.46,1.3l-.5.45c-4.67,4.13-9.45,8.29-14.06,12.31l-.1.08a.91.91,0,0,1-.44.24h0a44,44,0,0,1-6.17,1.07C241.43,204.58,239.88,204.66,238.35,204.66Zm4.19-116.28a16.3,16.3,0,0,0-13,6.34,3.22,3.22,0,0,1-1.35,1.09,2.94,2.94,0,0,1-1.09.15c-10.45.16-14.12,8.34-16.34,16.31-1.16,4.22-.59,8.23,0,12.46a59.76,59.76,0,0,1,.73,7.12c0,.56,0,1.12,0,1.68a80.1,80.1,0,0,1-3.19,22.76c-.38,1.29-.79,2.57-1.2,3.86-1.26,3.92-2.57,8-2.81,12.09A26.59,26.59,0,0,0,209.39,189a29.55,29.55,0,0,0,6.85,7c.56.42,1.08.76,1.58,1.07,6.94,4.42,15.8,6.35,25,5.44a40.89,40.89,0,0,0,5.65-1c4.6-4,9.35-8.14,14-12.25l.51-.44,1.43-1.29c2.26-2,4.26-3.86,6.15-5.66s3.8-3.64,5.76-5.63c1.81-6.9,1.63-14.81-.57-24.87-.26-1.19-.57-2.38-.87-3.53-.22-.86-.44-1.71-.64-2.56a27,27,0,0,1-.87-7.44v-.13c0-.8.09-1.59.14-2.38l0-.76a80.94,80.94,0,0,0,.15-11.22,44.5,44.5,0,0,0-4.12-16.19c-4.61-9.5-15.25-17.51-24.75-18.62A19.1,19.1,0,0,0,242.54,88.38Zm34.63,88.35h0Z" fill="#093f68"/><path d="M271.2,182.57c-2,1.93-4.09,3.81-6.16,5.67-.65.59-1.3,1.16-2,1.74q-7.05,6.24-14.16,12.4h0c-7.73,6.74-15.44,13.45-23.11,20.26q-2.12,1.88-4.23,3.8c-4,3.58-7.9,7.2-11.83,10.82l-1.93-41.51a25.48,25.48,0,0,1,12.9-22.18c.28-.17.57-.32.86-.46a.05.05,0,0,1,0,0,23.64,23.64,0,0,1,4.36-1.75h0a24.66,24.66,0,0,1,7-1h16.64a24.94,24.94,0,0,1,7.06,1,26.55,26.55,0,0,1,3.78,1.45l.5.25c.33.16.65.34,1,.52A25.66,25.66,0,0,1,271.2,182.57Z" fill="#ffc9b0"/><path d="M209.74,238.27a.84.84,0,0,1-.38-.08,1,1,0,0,1-.62-.87l-1.93-41.51a26.85,26.85,0,0,1,.79-6.5,26.44,26.44,0,0,1,12.62-16.6c.27-.16.56-.31.85-.45l.09-.06a24.9,24.9,0,0,1,4.53-1.81l.07,0a25.85,25.85,0,0,1,7.24-1h16.64a26.2,26.2,0,0,1,7.34,1,26.67,26.67,0,0,1,3.93,1.51l.56.27,1,.53a26.66,26.66,0,0,1,9.61,9.35,1,1,0,0,1-.16,1.24C270,185.1,268,187,265.71,189c-.48.44-1,.87-1.46,1.3l-.5.45c-4.67,4.13-9.45,8.29-14.06,12.31l-.1.08,0,0h0l-1.79,1.56c-7,6.1-14.24,12.41-21.3,18.69-1.42,1.25-2.82,2.51-4.22,3.79-4,3.6-8,7.27-11.84,10.82A1,1,0,0,1,209.74,238.27ZM222.14,174,222,174c-.26.12-.53.26-.79.41a24.48,24.48,0,0,0-12.4,21.32l1.83,39.32c3.36-3.09,6.81-6.26,10.27-9.37,1.39-1.28,2.81-2.55,4.23-3.81,7.07-6.28,14.31-12.59,21.31-18.7l1.78-1.54,0,0,.11-.1c4.62-4,9.39-8.17,14.05-12.3l.51-.44,1.43-1.29c2-1.81,3.84-3.48,5.56-5.09a24.75,24.75,0,0,0-8.47-8c-.3-.18-.61-.34-.92-.5a3.41,3.41,0,0,0-.44-.21,24.78,24.78,0,0,0-3.68-1.42,23.93,23.93,0,0,0-6.77-1H233a23.82,23.82,0,0,0-6.74,1h-.07A23.48,23.48,0,0,0,222.14,174Z" fill="#093f68"/><path d="M265,188.24c-.65.59-1.3,1.16-2,1.74q-7.05,6.24-14.16,12.4h0c-7.73,6.74-15.44,13.45-23.11,20.26q-2.12,1.88-4.23,3.8c-.37-8.8-1.26-17.91-3.65-24.77a19.65,19.65,0,0,1-.62-3.83c-.55-7.45,1.43-18.71,3.32-24a8.56,8.56,0,0,1,.95-.72.05.05,0,0,1,0,0A20.17,20.17,0,0,1,226,171c.2-.08.41-.15.63-.22l.68-.22a40.69,40.69,0,0,1,8-1.57l1.09-.1.24,0c.69-.06,1.4-.09,2.15-.12l.94,0,1.61,0,1.61,0,.94,0c.74,0,1.46.06,2.14.12l.25,0,1.08.1a43.63,43.63,0,0,1,6.1,1c.19.05.38.09.56.15.39.1.77.2,1.13.32l.53.16c.34.1.67.22,1,.33a20.65,20.65,0,0,1,4.32,2.09,7.28,7.28,0,0,1,1.07.79A72.87,72.87,0,0,1,265,188.24Z" fill="#68e1fd"/><path d="M221.57,227.45a.84.84,0,0,1-.38-.08,1,1,0,0,1-.61-.88c-.47-11-1.62-18.77-3.61-24.48a21.17,21.17,0,0,1-.67-4.08c-.54-7.32,1.35-18.75,3.38-24.43a1,1,0,0,1,.25-.39,11.28,11.28,0,0,1,1.06-.8l.07-.05h0a21.16,21.16,0,0,1,4.61-2.23l.58-.2.76-.25a42,42,0,0,1,8.2-1.61l1.08-.11.23,0c.74-.06,1.46-.09,2.22-.12l.95,0c1.11,0,2.21,0,3.24,0l1,0c.73,0,1.47.06,2.16.12l.27,0,1.08.11a45.85,45.85,0,0,1,6.24,1.06l.61.16c.37.09.77.2,1.15.33l.52.16c.27.07.56.17.83.27l.18.06a22.36,22.36,0,0,1,4.55,2.2,8.25,8.25,0,0,1,1.21.91,1,1,0,0,1,.25.39,73.42,73.42,0,0,1,3,14.61,1,1,0,0,1-.32.85c-.48.45-1,.88-1.46,1.31l-.5.45c-4.67,4.13-9.45,8.29-14.06,12.31l-.1.08,0,0h0l-1.79,1.56c-7,6.1-14.24,12.41-21.3,18.69-1.42,1.25-2.82,2.51-4.22,3.79A1,1,0,0,1,221.57,227.45Zm-.1-53c-1.93,5.57-3.69,16.39-3.18,23.35a19,19,0,0,0,.59,3.63c1.91,5.47,3.06,12.79,3.59,22.87l2.67-2.38c7.07-6.28,14.31-12.59,21.31-18.7l1.78-1.54,0,0,.11-.1c4.62-4,9.39-8.17,14.05-12.3l.51-.44,1.06-.95a72.61,72.61,0,0,0-2.8-13.42c-.15-.11-.39-.3-.75-.53a20.5,20.5,0,0,0-4.12-2l-.17-.06-.76-.25-.54-.17c-.36-.12-.72-.21-1.09-.3l-.53-.14a42.6,42.6,0,0,0-6-1l-1-.11-.3,0c-.64-.05-1.34-.09-2.07-.11l-.93,0c-1,0-2.14,0-3.15,0l-.92,0c-.75,0-1.45.06-2.13.11l-.26,0-1,.11a39.94,39.94,0,0,0-7.8,1.52l-.65.22c-.26.08-.44.14-.61.21a19.67,19.67,0,0,0-4.16,2l-.06,0Z" fill="#093f68"/><path d="M256.74,172.28c0,7-6.9,12.62-15.41,12.62s-15.4-5.65-15.4-12.62A11.38,11.38,0,0,1,226,171a44.91,44.91,0,0,1,15.32-2.31,45.37,45.37,0,0,1,15.33,2.3A11.55,11.55,0,0,1,256.74,172.28Z" fill="#ffc9b0"/><path d="M241.33,185.9c-9,0-16.4-6.11-16.4-13.62a12.09,12.09,0,0,1,.08-1.43,1,1,0,0,1,.66-.82A53,53,0,0,1,257,170a1,1,0,0,1,.66.82,12.1,12.1,0,0,1,.09,1.44C257.74,179.79,250.38,185.9,241.33,185.9Zm-14.39-14.2c0,.2,0,.39,0,.58,0,6.41,6.46,11.62,14.4,11.62s14.41-5.21,14.41-11.62c0-.19,0-.39,0-.59a51.9,51.9,0,0,0-28.78,0Z" fill="#093f68"/><path d="M236.64,170.35V165H246v5.4" fill="#ffc9b0"/><path d="M246,171.35a1,1,0,0,1-1-1V166h-7.38v4.4a1,1,0,1,1-2,0V165a1,1,0,0,1,1-1H246a1,1,0,0,1,1,1v5.4A1,1,0,0,1,246,171.35Z" fill="#093f68"/><ellipse cx="214.52" cy="140.58" rx="9.11" ry="7.85" fill="#ffc9b0"/><path d="M214.52,149.44c-5.58,0-10.12-4-10.12-8.86s4.54-8.85,10.12-8.85,10.11,4,10.11,8.85S220.09,149.44,214.52,149.44Zm0-15.71c-4.48,0-8.12,3.07-8.12,6.85s3.64,6.86,8.12,6.86,8.11-3.08,8.11-6.86S219,133.73,214.52,133.73Z" fill="#093f68"/><ellipse cx="267.65" cy="140.58" rx="9.11" ry="7.85" fill="#ffc9b0"/><path d="M267.65,149.44c-5.57,0-10.11-4-10.11-8.86s4.54-8.85,10.11-8.85,10.12,4,10.12,8.85S273.23,149.44,267.65,149.44Zm0-15.71c-4.47,0-8.11,3.07-8.11,6.85s3.64,6.86,8.11,6.86,8.12-3.08,8.12-6.86S272.13,133.73,267.65,133.73Z" fill="#093f68"/><path d="M258.05,117.3a26.14,26.14,0,0,1-9.74-2.23c-4.78-2.24-8.87-5.7-12.7-9.33-2.51,6.9-9.5,11-16,14.45-1.38.74-3.18,1.46-4.41.49-1.34,5.77-1.38,12.11-1.38,18a27.49,27.49,0,1,0,55,0V117.31C265.24,117.3,261.61,117.52,258.05,117.3Z" fill="#ffc9b0"/><path d="M241.33,167.18a28.52,28.52,0,0,1-28.49-28.49c0-5.43,0-12.18,1.4-18.24a1,1,0,0,1,1.6-.56c.6.48,1.69.29,3.32-.58,6.85-3.69,13.18-7.53,15.51-13.92a1,1,0,0,1,1.63-.38c3.43,3.26,7.59,6.89,12.43,9.16a25.32,25.32,0,0,0,9.38,2.14h0c2.3.13,4.68.09,7,0,1.24,0,2.49,0,3.72,0a1,1,0,0,1,1,1v21.38A28.52,28.52,0,0,1,241.33,167.18Zm-25.39-45.1c-1.1,5.54-1.1,11.64-1.1,16.61a26.49,26.49,0,1,0,53,0V118.32c-.89,0-1.79,0-2.68,0-2.35,0-4.77.08-7.15-.06h0A27.17,27.17,0,0,1,247.88,116a48,48,0,0,1-11.9-8.53c-2.89,6.22-9.15,10-15.87,13.62A6.79,6.79,0,0,1,215.94,122.08Z" fill="#093f68"/><circle cx="228.6" cy="134.69" r="2.55" fill="#093f68"/><circle cx="254.85" cy="134.69" r="2.55" fill="#093f68"/><path d="M241.2,144.25a16.21,16.21,0,0,1-2.52-.21,1,1,0,0,1,.35-2,12.27,12.27,0,0,0,3.54.07c0-.87-.91-3.41-2.13-5.75a1,1,0,0,1,.43-1.35,1,1,0,0,1,1.34.42c.91,1.74,2.93,6,2.17,7.67a1.57,1.57,0,0,1-1.06.89A8.83,8.83,0,0,1,241.2,144.25Z" fill="#093f68"/><path d="M233.8,127.57h0l-12.14,0a1.59,1.59,0,0,1,0-3.18h0l12.14,0a1.59,1.59,0,0,1,0,3.18Z" fill="#093f68"/><path d="M251.11,127.86a1.59,1.59,0,0,1-.08-3.17l12.12-.63a1.59,1.59,0,1,1,.16,3.18l-12.12.62Z" fill="#093f68"/><path d="M243.06,154.86c-5.81,0-12-3.18-12.37-3.37a1,1,0,1,1,.92-1.77c.11.06,11.72,6,16.88,1.41a1,1,0,0,1,1.33,1.5A10,10,0,0,1,243.06,154.86Z" fill="#093f68"/><path d="M192.53,190l-.83,48.48c-2-1.87-4-3.72-6.07-5.53l-6.27-5.55-.11-.09q-9.9-8.75-19.84-17.47l-1.56-1.37L145,197.18c-2.69-2.37-5.37-4.73-8-7.12h0c-3.36-3-6.68-6.05-9.92-9.18,2.74-5.8,9.78-11.31,27.34-12.11,1.45-.07,3-.1,4.57-.1s3.13,0,4.58.1C190.73,170,192.68,182.5,192.53,190Z" fill="#68e1fd"/><path d="M191.7,239.45a1,1,0,0,1-.68-.27c-2.35-2.19-4.28-3.94-6.05-5.51l-3.14-2.78-3.13-2.77-.11-.09q-9.9-8.75-19.84-17.47l-1.1-1-.46-.4-9.05-7.95-3.77-3.31q-4-3.54-8-7.1l-.08-.08c-3.72-3.33-7-6.32-9.9-9.15a1,1,0,0,1-.21-1.15c3.64-7.73,13.13-12,28.19-12.69,3.13-.14,6.12-.14,9.24,0,30.35,1.39,30,17.07,29.95,22.23l-.83,48.48a1,1,0,0,1-.61.9A.88.88,0,0,1,191.7,239.45ZM180,226.62l3.13,2.78,3.13,2.77c1.36,1.2,2.8,2.5,4.45,4l.79-46.24h0c.16-8.11-2.58-19-28-20.2-3.06-.13-6-.13-9.07,0-13.82.64-22.61,4.31-26.15,10.92,2.79,2.67,5.86,5.5,9.36,8.63l.07.07h0c2.6,2.32,5.28,4.68,8,7.05l3.77,3.3,9,8,.45.39,1.12,1q9.91,8.72,19.84,17.47l-.56.84Z" fill="#093f68"/><path d="M163.54,169.35l-.06.69a.29.29,0,0,1,0,.09l-4.05,39.68-1.56-1.37L154.44,170l-.05-.62Z" fill="#fff"/><path d="M159.41,210.71a.9.9,0,0,1-.6-.23c-.36-.33-.73-.65-1.09-1l-.47-.41a.89.89,0,0,1-.3-.6l-3.46-39.08a.89.89,0,0,1,.9-1h9.15a.89.89,0,0,1,.9,1l-.07.69a.93.93,0,0,1,0,.14l-4,39.64a.88.88,0,0,1-.57.75A.87.87,0,0,1,159.41,210.71Zm-4-40.46,3.33,37.66,3.84-37.66Z" fill="#093f68"/><path d="M154.39,164.08h9.15a0,0,0,0,1,0,0v5.27a3.89,3.89,0,0,1-3.89,3.89h-1.38a3.89,3.89,0,0,1-3.89-3.89v-5.27a0,0,0,0,1,0,0Z" fill="#ffc9b0"/><path d="M159.65,174.23h-1.38a4.89,4.89,0,0,1-4.88-4.88v-5.27a1,1,0,0,1,1-1h9.15a1,1,0,0,1,1,1v5.27A4.89,4.89,0,0,1,159.65,174.23Zm-4.26-9.15v4.27a2.88,2.88,0,0,0,2.88,2.88h1.38a2.88,2.88,0,0,0,2.89-2.88v-4.27Z" fill="#093f68"/><path d="M127.36,138.68c-4.25-1.61-4-4.86-4.64-9a108.48,108.48,0,0,1-1.17-12.46c-.16-4.74,0-9.62,1.81-14,2.31-5.65,6.87-9.31,13-8.81C136.16,86,141.16,78.22,150,77.75c14.2-.75,22.35,14.49,30.3,13.35s10.06-4.66,10.06-4.66a14.56,14.56,0,0,1-1.7,16.06s6.25-1.82,7,6.5-4.22,30.45-4.22,30.45l-5.68-1c-2.38-.41-5.36.17-7.76.25l-17.74.55C151.4,139.53,137,142.33,127.36,138.68Z" fill="#725858"/><path d="M140.15,141.53A37.71,37.71,0,0,1,127,139.61c-4.2-1.59-4.61-4.76-5-8.11-.07-.54-.14-1.11-.23-1.7a108.15,108.15,0,0,1-1.19-12.58c-.15-4.47,0-9.68,1.88-14.42,2.45-6,7.2-9.47,12.84-9.47h.08c.24-8,5.2-16.08,14.62-16.58,8.29-.44,14.69,4.4,19.82,8.28,3.92,3,7.3,5.52,10.39,5.08,7.28-1,9.33-4.16,9.35-4.19a1,1,0,0,1,.86-.48,1,1,0,0,1,.85.5,15.75,15.75,0,0,1-.52,15.42,5.89,5.89,0,0,1,2.82,1c1.8,1.23,2.86,3.43,3.14,6.56.77,8.39-4,29.85-4.24,30.76a1,1,0,0,1-1.15.76l-5.67-1a20.15,20.15,0,0,0-5,.07c-.9.08-1.74.16-2.55.19l-17.74.55c-2.21.07-4.81.3-7.55.54C148.85,141.14,144.47,141.53,140.15,141.53Zm-4.9-46.2c-4.85,0-8.81,3-11,8.23-1.8,4.38-1.89,9.33-1.74,13.6a106.62,106.62,0,0,0,1.16,12.34c.1.6.17,1.19.24,1.75.42,3.32.68,5.32,3.76,6.49,7,2.66,16.91,1.77,24.88,1.06,2.77-.24,5.4-.48,7.67-.55L178,137.7c.75,0,1.56-.1,2.42-.18a21,21,0,0,1,5.54-.05h0l4.74.83c.92-4.28,4.64-22.09,4-29.21-.22-2.49-1-4.2-2.25-5.07a4.61,4.61,0,0,0-3.49-.56,1,1,0,0,1-1.1-.41,1,1,0,0,1,.05-1.18,13.38,13.38,0,0,0,2.21-13.65c-1.4,1.26-4.29,3.1-9.65,3.87-3.92.56-7.61-2.23-11.88-5.47-5.12-3.88-10.92-8.26-18.5-7.87-8.57.46-12.9,8.2-12.74,15.6a1,1,0,0,1-.31.75,1,1,0,0,1-.77.27C135.92,95.34,135.58,95.33,135.25,95.33Z" fill="#093f68"/><ellipse cx="132.8" cy="140.3" rx="8.89" ry="7.66" fill="#ffc9b0"/><path d="M132.8,149c-5.46,0-9.89-3.88-9.89-8.66s4.43-8.67,9.89-8.67,9.89,3.89,9.89,8.67S138.26,149,132.8,149Zm0-15.33c-4.35,0-7.89,3-7.89,6.67s3.54,6.66,7.89,6.66,7.89-3,7.89-6.66S137.15,133.63,132.8,133.63Z" fill="#093f68"/><ellipse cx="184.65" cy="140.3" rx="8.89" ry="7.66" fill="#ffc9b0"/><path d="M184.65,149c-5.45,0-9.89-3.88-9.89-8.66s4.44-8.67,9.89-8.67,9.9,3.89,9.9,8.67S190.11,149,184.65,149Zm0-15.33c-4.35,0-7.89,3-7.89,6.67s3.54,6.66,7.89,6.66,7.9-3,7.9-6.66S189,133.63,184.65,133.63Z" fill="#093f68"/><path d="M159,165.28h0a26.83,26.83,0,0,1-26.82-26.83V119c1.57,2.57,6.77,1.55,14.4-11.55,28.58,14.48,39.25,6.18,39.25,6.18v24.84A26.83,26.83,0,0,1,159,165.28Z" fill="#ffc9b0"/><path d="M159,166.28a27.85,27.85,0,0,1-27.82-27.83V119a1,1,0,0,1,.73-1,1,1,0,0,1,1.12.45,1.3,1.3,0,0,0,1.2.65h0c1,0,4.91-.92,11.47-12.18a1,1,0,0,1,1.32-.39c14.41,7.3,24,8.61,29.59,8.42,5.95-.2,8.57-2.12,8.59-2.14a1,1,0,0,1,1-.1,1,1,0,0,1,.56.89v24.84A27.86,27.86,0,0,1,159,166.28ZM133.14,121v17.49c0,14.24,11.58,24.83,25.82,24.83s25.83-10.59,25.83-24.83V115.31c-3.94,1.79-15.39,4.61-37.86-6.56-4.75,8-9.25,12.33-12.7,12.36A3.55,3.55,0,0,1,133.14,121Z" fill="#093f68"/><path d="M137,190.06h0l-.23-5.14C136.82,186.53,136.9,188.25,137,190.06Z" fill="#68e1fd"/><path d="M137,191.06a1,1,0,0,1-.63-.22,1,1,0,0,1-.39-.79l-.23-5.1a1,1,0,0,1,2-.1L138,190a1,1,0,0,1-.61,1A.88.88,0,0,1,137,191.06Z" fill="#093f68"/><path d="M179.25,227.28l1.55-33.78c-.45,10.27-.94,22.65-1.44,33.87Z" fill="#68e1fd"/><path d="M181.11,186.63l-.23,5C181,189.88,181,188.22,181.11,186.63Z" fill="#68e1fd"/><path d="M182.11,186.68a1,1,0,0,0-1-1,1,1,0,0,0-1,1l-.06,1.28c-.05,1.12-.18,4.11-.24,5.54,0,0,0,0,0,.05l-1.54,33.77a1.12,1.12,0,0,0,.39.85l.12.09a1,1,0,0,0,.59.2.91.91,0,0,0,.43-.1,1,1,0,0,0,.57-.86c.26-5.84.52-12,.77-18,.22-5.42.44-10.72.66-15.57a.43.43,0,0,0,0-.05Z" fill="#093f68"/><circle cx="146" cy="134.58" r="2.76" fill="#093f68"/><circle cx="173" cy="134.58" r="2.76" fill="#093f68"/><path d="M158.9,143.52a16.17,16.17,0,0,1-2.71-.23,1,1,0,0,1-.81-1.16,1,1,0,0,1,1.16-.81,12.7,12.7,0,0,0,3.93.07c.08-.89-.95-3.72-2.32-6.34a1,1,0,0,1,1.78-.93c1,1.87,3.15,6.42,2.34,8.23a1.63,1.63,0,0,1-1.1.93A9.51,9.51,0,0,1,158.9,143.52Z" fill="#093f68"/><path d="M150.28,128.33h0l-13.15,0a2,2,0,1,1,0-4h0l13.15,0a2,2,0,1,1,0,4Z" fill="#093f68"/><path d="M182.16,128H167.65a2,2,0,0,1,0-4h14.51a2,2,0,0,1,0,4Z" fill="#093f68"/><path d="M168.26,150s-7.34,3.72-17.37,0" fill="#ffc9b0"/><path d="M159.87,152.62a26.59,26.59,0,0,1-9.33-1.73,1,1,0,1,1,.7-1.87c9.46,3.51,16.5.08,16.57,0a1,1,0,0,1,.9,1.79A21,21,0,0,1,159.87,152.62Z" fill="#093f68"/><circle cx="208.21" cy="146.06" r="2.81" fill="#ffbc0e"/><path d="M208.21,149.87a3.81,3.81,0,1,1,3.81-3.81A3.82,3.82,0,0,1,208.21,149.87Zm0-5.62a1.81,1.81,0,1,0,1.81,1.81A1.81,1.81,0,0,0,208.21,144.25Z" fill="#093f68"/><circle cx="274.01" cy="146.06" r="2.81" fill="#ffbc0e"/><path d="M274,149.87a3.81,3.81,0,1,1,3.81-3.81A3.82,3.82,0,0,1,274,149.87Zm0-5.62a1.81,1.81,0,1,0,1.81,1.81A1.81,1.81,0,0,0,274,144.25Z" fill="#093f68"/></g></svg>